<svg xmlns="http://www.w3.org/2000/svg" width="36.482" height="35.779" viewBox="0 0 36.482 35.779"><defs><style>.a{fill:#d4af37;}</style></defs><g transform="translate(8952.884 5581)"><circle class="a" cx="10" cy="10" r="10" transform="translate(-8945 -5573)"/><path class="a" d="M3.5,0,7,6H0Z" transform="translate(-8938 -5581)"/><path class="a" d="M3.538,0,7.077,6.29H0Z" transform="matrix(0.766, 0.643, -0.643, 0.766, -8926.109, -5578.804)"/><path class="a" d="M3.538,0,7.077,6.29H0Z" transform="translate(-8917.631 -5569.912) rotate(80)"/><path class="a" d="M3.538,0,7.077,6.29H0Z" transform="translate(-8917.587 -5556.758) rotate(120)"/><path class="a" d="M3.538,0,7.077,6.29H0Z" transform="translate(-8924.935 -5547.641) rotate(160)"/><path class="a" d="M3.538,0,7.077,6.29H0Z" transform="matrix(-0.94, -0.342, 0.342, -0.94, -8937.701, -5545.221)"/><path class="a" d="M3.538,0,7.077,6.29H0Z" transform="translate(-8949.161 -5551.629) rotate(-120)"/><path class="a" d="M3.538,0,7.077,6.29H0Z" transform="matrix(0.174, -0.985, 0.985, 0.174, -8952.884, -5563.943)"/><path class="a" d="M3.538,0,7.077,6.29H0Z" transform="matrix(0.766, -0.643, 0.643, 0.766, -8948.4, -5575.451)"/></g></svg>